PathFileType	4	(X/Y/Z)	18_2_rein_73_p1_0-320.trc
DataRate	CameraRate	NumFrames	NumMarkers	Units	OrigDataRate	OrigDataStartFrame	OrigNumFrames
60.0	60.0	5	27	m	60.0	0	321
Frame#	Time	RHip			RKnee			RAnkle			RBigToe			RSmallToe			RHeel			LHip			LKnee			LAnkle			LBigToe			LSmallToe			LHeel			Neck			Head			Nose			RShoulder			RElbow			RWrist			RThumb			RIndex			RPinky			LShoulder			LElbow			LWrist			LThumb			LIndex			LPinky			
		X1	Y1	Z1	X2	Y2	Z2	X3	Y3	Z3	X4	Y4	Z4	X5	Y5	Z5	X6	Y6	Z6	X7	Y7	Z7	X8	Y8	Z8	X9	Y9	Z9	X10	Y10	Z10	X11	Y11	Z11	X12	Y12	Z12	X13	Y13	Z13	X14	Y14	Z14	X15	Y15	Z15	X16	Y16	Z16	X17	Y17	Z17	X18	Y18	Z18	X19	Y19	Z19	X20	Y20	Z20	X21	Y21	Z21	X22	Y22	Z22	X23	Y23	Z23	X24	Y24	Z24	X25	Y25	Z25	X26	Y26	Z26	X27	Y27	Z27	
0	0.0	0.28171718289615083	0.4158126970954346	1.1574862505560302	0.26574818598107236	0.5122077573531001	1.5809558115144131	0.22551097490802255	0.6529619458315193	2.036137658306533	0.21304989701873484	0.3874884731910598	2.0416430747131917	0.2636846301374569	0.446190582093952	2.0544303429915667	0.218508977260553	0.6768300917897714	2.0755348440504378	0.09946728612049006	0.361688689947712	1.139685645740717	0.08093195999131134	0.46237296816091467	1.5653126013498322	0.05534525481575509	0.582785395305756	2.017593384670731	0.05873595247072979	0.37912656766403263	2.0310547134434254	0.01100663182527749	0.4368040590629319	2.041455170763694	0.0744082633980713	0.649233553744386	2.0791982502061037	0.19873325305488027	0.3108601084896825	0.5929757294072376	0.20326130925927047	0.24598006462665142	0.3591857937171796	0.19869625213721862	0.22256662388365692	0.48915971639626304	0.34754681738078663	0.34444076577725335	0.6931564974099785	0.35785022823935825	0.20024242569107092	0.8724861658890232	0.25600605845586166	-0.026859057253949558	0.9529636105975081	0.17881907130938024	-0.09191980537450943	0.9560010997869448	0.16704083886155005	-0.09840653554653751	0.9759992342155152	0.18447257084244248	-0.0856395690696512	1.0181272924965061	0.048767042039623704	0.34746279065716407	0.6824450647189585	0.044183505617509986	0.19738780546590518	0.8700816563225967	0.11624353641215275	-0.04575238230946713	0.9536273272716979	0.16863568140110458	-0.12879208214411386	0.950425961720929	0.16829680610708725	-0.13253436153721476	0.9683478954753123	0.16462742743765682	-0.12341885055642182	1.0129153733278478
1	0.016666666666666666	0.28177558477166903	0.41574850831160176	1.1571488037497573	0.2657463100086442	0.5122683577696292	1.5808271447010427	0.22992243958526226	0.6358352016794339	2.028814560843152	0.20923072331303103	0.37166131708461014	2.0303798671885844	0.265248734237387	0.4347494832388904	2.0490881304699284	0.21822990508899454	0.6817050823651328	2.087457190736591	0.09942226384047291	0.3617685444648281	1.1394289778512035	0.08083658317335035	0.46273895667217446	1.5653175909040538	0.05622114021120032	0.5862770032561795	2.023751829481107	0.058646308538300704	0.3787725601847055	2.031038555449489	0.015227881207038078	0.42324360874186495	2.0387401752594467	0.07427047376199825	0.6519437379283559	2.075570943140903	0.1986821233270246	0.3110165302224945	0.5929757058613897	0.2032631451333735	0.24593751714469264	0.35918473571229786	0.19849462342158128	0.22346668431588412	0.48582833260831887	0.34776352457765675	0.343900087817393	0.6895690234025308	0.3579754216200502	0.20080752487515263	0.865660303955661	0.25566789974323006	-0.025493813422079677	0.9497939197306142	0.176060985468414	-0.10109906239307244	0.954735755106095	0.1590745534344006	-0.12760929114748068	0.9704328724938911	0.18488051977409287	-0.08350347963696345	1.0218100034675568	0.04867375316547736	0.34753009751269875	0.6825675567912625	0.04408314694389856	0.19762836642485584	0.8698986314577163	0.11620134579002443	-0.045819565131186527	0.9535726015331456	0.16871001139068775	-0.129060881094267	0.9504221520301958	0.1683151334385033	-0.1326044610531358	0.9683740808225199	0.16416727424946992	-0.12261612348605969	1.015956108761725
2	0.03333333333333333	0.2817729042294397	0.4158147066494648	1.157154110557639	0.26665474495340974	0.5150003558290979	1.5859025961089697	0.22994886015104596	0.6359059559284512	2.0287388314271984	0.21331100903989003	0.3569518928120924	2.0229227934926093	0.26539554866981785	0.4346110238385089	2.049054322869712	0.21735692804557988	0.6785476395010119	2.080975565160652	0.10004364206341695	0.3609093040292185	1.1358431554118031	0.08609080549522566	0.4461526014912281	1.564107427555847	0.05542388193242056	0.5831909080772729	2.0180856141611665	0.0608270279426073	0.392222002127384	2.037629683811027	0.015263703721789415	0.4232286944866118	2.0387753105735085	0.07698057010803816	0.6663077197081078	2.0820330457934153	0.1986775965049989	0.3110293975245019	0.5930204296398373	0.2032673040233512	0.24594791245154296	0.35920247291744617	0.19850615515665926	0.22341060572863172	0.48584860672105784	0.3477820514331086	0.34396096570724577	0.6896203214516946	0.35792995739787076	0.20077613076020906	0.865553658392087	0.2556177266330731	-0.025535416247965407	0.9497676896336461	0.17603894166756678	-0.10138789558487628	0.9546292789694902	0.16449446368561832	-0.10754896485893634	0.9747788451714152	0.1849400428750784	-0.08349862533520089	1.0217425100719668	0.04868497616873613	0.34753345539629815	0.6826948671064057	0.04409247435128134	0.1975700259545794	0.8700533529666175	0.11581818454672603	-0.04552618841044647	0.9568721043421986	0.16642529286215177	-0.13698994593591704	0.9491416724281821	0.16824313103205785	-0.1328904435584781	0.9683118466963154	0.16461677452540857	-0.12364802486987353	1.0129559250828724
3	0.05	0.2817900693214974	0.4156273592414808	1.1572977131580717	0.266654329173243	0.5150641468850838	1.5861280770987307	0.22890195619020173	0.6378122780957072	2.0337570299251495	0.21322339367051069	0.3572393357901606	2.023021923028748	0.2643945593122502	0.4175635095326531	2.0404761665441344	0.21714452063004996	0.6837822915066037	2.092375191184435	0.09948658253722832	0.3617537203071405	1.1396563135324893	0.0861447198047819	0.44592484898184265	1.5640635776965202	0.055350796922025526	0.5832208888162326	2.01819669200342	0.05873613562786528	0.37892980687312494	2.030977925764485	0.015257217474720485	0.4231050405574198	2.038617181385973	0.07573547977857518	0.6682414223683919	2.087836442910167	0.1987001612820085	0.31096143519020636	0.5930026347553049	0.20325438124989684	0.24588945756007094	0.359192341180227	0.1985164538249167	0.22342255493970783	0.48585139899630586	0.34757086366706863	0.3443459926524618	0.693102781173362	0.3576642849680324	0.20119872794310775	0.8690915142439646	0.25913170240747585	-0.03545771921950229	0.9481493517082942	0.17608338436426607	-0.10105152598351774	0.9545716296144843	0.15926395427837703	-0.1291017332462784	0.9663232722635012	0.1849816744299543	-0.08316162988418933	1.0217781779331685	0.048719375415623545	0.3475254134620992	0.6826611299990133	0.046251940217617325	0.20633385641720434	0.8675409915129276	0.11636116156815306	-0.04589158048187001	0.9534956251249449	0.16644325575529825	-0.13704909533114087	0.9490847642122405	0.16829833492637988	-0.13295672166763284	0.9682676362044571	0.16466526705826018	-0.12349528303826367	1.0128554391199958
4	0.06666666666666667	0.2817602723669683	0.4157417450252922	1.1572404996298467	0.2666592417724558	0.5150841455552445	1.5861600278882517	0.22446280152187634	0.6546976527913769	2.041445053700899	0.21738134394494923	0.3683680294799001	2.023944299379246	0.2727490953273592	0.4323384789670637	2.0473185744587767	0.21255895240482173	0.7008153124159457	2.1000175883047034	0.09947822568806816	0.36184008412569135	1.1396340384616244	0.08613648287301323	0.44595744516479174	1.5640140671908593	0.05532274070157068	0.5832310118271402	2.018127961326092	0.060920255526698164	0.3924178912485256	2.0375861297968756	0.015319199804575322	0.4230014715701105	2.038486444101457	0.07556889714396517	0.6679766224799223	2.087341847443657	0.19871384545453175	0.3109767314588152	0.5930298472580138	0.20319093094549381	0.24645420952576952	0.362572385864103	0.19849067504828707	0.2234891615789196	0.48580896034687526	0.34780492738113766	0.3437534833029235	0.6895470612157542	0.35791891125633174	0.20068591311336617	0.8654596298766987	0.2556462393944253	-0.025221870534380627	0.9496767541190473	0.17609600528023436	-0.10111385686277603	0.9545975574895227	0.16097126189307298	-0.1444285380408678	0.9633026030287055	0.18493911643422006	-0.0829441479221394	1.0217215426353232	0.04873921389258555	0.34747940390818627	0.6826904237863589	0.04624328693084608	0.20645246052984328	0.8675742676313254	0.11630376603438214	-0.045770183201209166	0.9535121563243452	0.16644599920119021	-0.13719430077262024	0.9491086246973016	0.17134554402945984	-0.14257622179905582	0.9666134139316841	0.16462964333314353	-0.12357693454309543	1.0128575006151717
